<svg width="126" height="28" viewBox="0 0 126 28" fill="none" xmlns="http://www.w3.org/2000/svg">
<path d="M124.618 7.31482C123.598 7.16483 122.698 7.9748 122.752 9.00676C122.788 9.76873 123.376 10.4167 124.132 10.5247C125.152 10.6747 126.052 9.86473 125.998 8.83276C125.962 8.07079 125.374 7.42282 124.618 7.31482Z" fill="#3FA7C3"/>
<path d="M120.718 16.8664C120.64 16.6864 120.568 16.5004 120.514 16.3144C120.13 15.0485 120.724 14.0105 121.138 12.8465C121.468 11.9226 121.786 10.6686 120.748 10.0686C120.07 9.67866 119.446 10.0986 119.2 10.7706C118.492 12.7385 117.838 14.2745 116.02 15.4504C115.21 15.9724 114.16 16.3384 113.188 16.1284C112.432 15.9664 111.748 15.3844 111.496 14.6645C111.28 14.0465 111.34 13.2125 111.88 12.7625C112.288 12.4266 112.828 12.4686 113.32 12.4086C113.722 12.3606 114.142 12.2586 114.46 11.9826C114.508 11.9406 114.55 11.8986 114.592 11.8506C115.144 11.2086 114.97 10.2306 114.784 9.48067C114.658 8.97069 114.466 8.47871 114.28 7.98672C114.118 7.56074 114.022 7.03876 114.196 6.60078C114.346 6.21679 114.676 5.9228 115.078 5.82681C116.008 5.60481 116.806 6.44478 117.436 7.00276C118.276 7.74673 119.326 8.11272 120.4 7.62674C120.898 7.39875 121.354 7.05076 121.774 6.70277C122.739 5.8868 124.023 4.80684 124.005 3.4149C123.993 2.38894 123.099 1.47697 122.08 1.35698C121.612 1.30298 121.084 1.42298 120.82 1.80696C120.472 2.31094 120.664 3.01891 120.616 3.59489C120.544 4.44686 119.818 4.75885 119.02 4.58485C118.108 4.38686 117.286 3.90688 116.362 3.74489C115.66 3.61889 114.946 3.59489 114.238 3.66689C112.828 3.81688 111.472 4.37486 110.362 5.26883C110.086 5.49082 109.828 5.73081 109.588 5.9888C109.102 6.51078 108.676 7.08676 108.334 7.71673C107.986 8.35271 107.722 9.03068 107.572 9.73866C107.398 10.5546 107.344 11.4006 107.038 12.1866C106.618 13.2545 105.61 13.7945 104.716 14.4125C104.254 14.7365 103.822 15.1624 103.63 15.7084C103.408 16.3384 103.588 16.9924 103.966 17.5144C105.076 19.0683 106.72 20.0283 108.394 20.7422C110.26 21.5402 112.252 22.0142 114.268 22.2182C114.754 22.2662 115.24 22.3022 115.726 22.3202C116.02 22.3322 116.314 22.3382 116.608 22.3322C118.024 22.3322 119.644 22.2542 120.958 21.6902C121.258 21.5582 121.534 21.3662 121.738 21.1082C122.817 19.7463 121.24 18.0903 120.712 16.8724L120.718 16.8664Z" fill="#3FA7C3"/>
<path d="M113.351 23.5858C113.723 23.6758 113.921 24.0958 113.747 24.4378C113.093 25.7157 111.629 26.4237 110.171 26.0697C108.713 25.7157 107.741 24.4078 107.753 22.9678C107.753 22.5838 108.125 22.3018 108.497 22.3918L113.351 23.5798V23.5858Z" fill="#3FA7C3"/>
<path d="M11.8965 0.00574101V18.9104H8.62997V18.2732C6.12695 19.5362 3.08429 18.8817 1.32184 16.7002C-0.440612 14.5187 -0.440612 11.4071 1.32184 9.22558C3.08429 7.04405 6.12695 6.38959 8.62997 7.65259V0H11.8965V0.00574101ZM8.62997 12.9686C8.62997 11.4875 7.43013 10.2876 5.94898 10.2876C4.46784 10.2876 3.26799 11.4875 3.26799 12.9686C3.26799 14.4498 4.46784 15.6496 5.94898 15.6496C7.43013 15.6496 8.62423 14.4498 8.62997 12.9686Z" fill="#3FA7C3"/>
<path d="M14.0554 3.5135V0.0632324H17.322V3.5135H14.0554ZM14.0554 18.9163V7.0384H17.322V18.9163H14.0554Z" fill="#3FA7C3"/>
<path d="M29.9337 12.2393V18.916H26.6672V12.2393C26.6672 11.16 25.7888 10.2817 24.7096 10.2817C23.6303 10.2817 22.7519 11.16 22.7519 12.2393V18.916H19.4854V7.01514H22.7519V7.39403C23.3719 7.14144 24.0379 7.01514 24.7096 7.01514C27.5915 7.01514 29.9337 9.35741 29.9337 12.2393Z" fill="#3FA7C3"/>
<path d="M45.2914 7.02075V10.2873H43.7299V12.9683C43.7299 14.547 43.1042 16.0569 41.9904 17.1764C40.8767 18.2958 39.3611 18.9158 37.7824 18.9158H35.6181C35.331 18.9158 35.1014 19.1455 35.1014 19.4325C35.1014 19.7196 35.331 19.9492 35.6181 19.9492H39.9467C42.0364 19.9492 43.7299 21.6428 43.7299 23.7324C43.7299 25.8221 42.0364 27.5157 39.9467 27.5157H36.1462V24.2491H39.9409C40.228 24.2491 40.4576 24.0195 40.4576 23.7324C40.4576 23.4454 40.228 23.2158 39.9409 23.2158H35.6123C34.0451 23.2158 32.6386 22.2513 32.0817 20.7874C31.5191 19.3235 31.9209 17.6643 33.0863 16.6195C31.2722 14.2887 31.4445 10.982 33.4882 8.85209C35.532 6.72223 38.833 6.41796 41.2326 8.13448C41.2843 8.07707 41.336 8.01967 41.3934 7.96226C41.9904 7.35947 42.8056 7.02075 43.6553 7.02649H45.2914V7.02075ZM37.7824 10.2873C36.3012 10.2873 35.1071 11.4872 35.1014 12.9683C35.1014 14.0533 35.7558 15.0293 36.7548 15.4426C37.7537 15.856 38.9076 15.6263 39.6711 14.8628C40.4347 14.0993 40.6643 12.9453 40.251 11.9464C39.8376 10.9475 38.8617 10.2931 37.7766 10.2931L37.7824 10.2873Z" fill="#3FA7C3"/>
<path d="M58.5413 0.00574101V18.9104H55.2747V18.2732C52.7717 19.5362 49.7291 18.8817 47.9666 16.7002C46.2042 14.5187 46.2042 11.4071 47.9666 9.22558C49.7291 7.04405 52.7717 6.38959 55.2747 7.65259V0H58.5413V0.00574101ZM55.269 12.9686C55.269 11.4875 54.0692 10.2876 52.588 10.2876C51.1069 10.2876 49.907 11.4875 49.907 12.9686C49.907 14.4498 51.1069 15.6496 52.588 15.6496C54.0692 15.6496 55.2633 14.4498 55.269 12.9686Z" fill="#3FA7C3"/>
<path d="M72.3191 12.9571C72.3191 15.3625 70.8724 17.5325 68.6507 18.4511C66.429 19.3696 63.8685 18.8644 62.1692 17.1594C60.4699 15.4543 59.959 12.8997 60.8775 10.6779C61.7961 8.45622 63.9661 7.00952 66.3715 7.00952C69.6553 7.00952 72.3133 9.67329 72.3191 12.9571ZM66.3715 15.6381C67.8527 15.6381 69.0468 14.4382 69.0525 12.9571C69.0525 11.872 68.3981 10.8961 67.3992 10.4828C66.4002 10.0694 65.2463 10.299 64.4828 11.0626C63.7193 11.8261 63.4896 12.98 63.903 13.9789C64.3163 14.9779 65.2923 15.6323 66.3773 15.6323L66.3715 15.6381Z" fill="#3FA7C3"/>
<path d="M84.6567 12.2393V18.916H81.3901V12.2393C81.3901 11.16 80.5117 10.2817 79.4325 10.2817C78.3532 10.2817 77.4748 11.16 77.4748 12.2393V18.916H74.2083V7.01514H77.4748V7.39403C78.0948 7.14144 78.7608 7.01514 79.4325 7.01514C82.3144 7.01514 84.6567 9.35741 84.6567 12.2393Z" fill="#3FA7C3"/>
<path d="M100.013 7.02075V10.2873H98.4511V12.9683C98.4511 14.547 97.8254 16.0569 96.7116 17.1764C95.5979 18.2958 94.0823 18.9158 92.5036 18.9158H90.3393C90.0522 18.9158 89.8226 19.1455 89.8226 19.4325C89.8226 19.7196 90.0522 19.9492 90.3393 19.9492H94.6679C96.7576 19.9492 98.4511 21.6428 98.4511 23.7324C98.4511 25.8221 96.7576 27.5157 94.6679 27.5157H90.8674V24.2491H94.6621C94.9492 24.2491 95.1788 24.0195 95.1788 23.7324C95.1788 23.4454 94.9492 23.2158 94.6621 23.2158H90.3335C88.7663 23.2158 87.3597 22.2513 86.8029 20.7874C86.2403 19.3235 86.6421 17.6643 87.8075 16.6195C85.9934 14.2887 86.1656 10.982 88.2094 8.85209C90.2531 6.72223 93.5542 6.41796 95.9538 8.13448C96.0055 8.07707 96.0572 8.01967 96.1146 7.96226C96.7116 7.35947 97.5268 7.02075 98.3765 7.02649H100.013V7.02075ZM92.5036 10.2873C91.0224 10.2873 89.8283 11.4872 89.8226 12.9683C89.8226 14.0533 90.477 15.0293 91.476 15.4426C92.4749 15.856 93.6288 15.6263 94.3923 14.8628C95.1559 14.0993 95.3855 12.9453 94.9721 11.9464C94.5588 10.9475 93.5829 10.2931 92.4978 10.2931L92.5036 10.2873Z" fill="#3FA7C3"/>
</svg>
