<svg width="223" height="230" viewBox="0 0 223 230" fill="none" xmlns="http://www.w3.org/2000/svg">
<path d="M161.314 66.3088C156.063 65.5322 151.459 69.7112 151.717 74.9996C151.921 78.9197 154.916 82.2296 158.8 82.8028C164.051 83.5794 168.655 79.4005 168.396 74.112C168.193 70.1919 165.197 66.882 161.314 66.3088Z" fill="#3FA7C3"/>
<path d="M141.308 115.365C140.901 114.441 140.55 113.498 140.254 112.536C138.294 106.027 141.326 100.702 143.471 94.7293C145.172 89.9772 146.781 83.5238 141.456 80.4728C137.979 78.4757 134.762 80.6207 133.523 84.097C129.88 94.1931 126.533 102.089 117.195 108.117C113.035 110.798 107.636 112.684 102.662 111.593C98.7784 110.743 95.2651 107.784 93.9708 104.086C92.8613 100.905 93.1756 96.6154 95.9493 94.341C98.0388 92.6214 100.812 92.8248 103.346 92.5289C105.417 92.2885 107.58 91.7523 109.189 90.347C109.429 90.1436 109.651 89.9032 109.873 89.6628C112.721 86.3529 111.796 81.3418 110.853 77.4957C110.206 74.87 109.226 72.3367 108.264 69.8034C107.451 67.6215 106.951 64.9218 107.839 62.6844C108.616 60.7244 110.298 59.1896 112.369 58.7088C117.159 57.5624 121.245 61.8893 124.481 64.7554C128.789 68.5645 134.189 70.4691 139.718 67.9543C142.288 66.7894 144.618 65.0143 146.763 63.2021C151.718 59.0047 158.301 53.4574 158.246 46.3198C158.19 41.0499 153.586 36.3717 148.353 35.743C145.968 35.4656 143.249 36.0758 141.881 38.0543C140.087 40.6431 141.086 44.2858 140.846 47.2259C140.476 51.6083 136.759 53.1985 132.654 52.3109C127.976 51.3124 123.76 48.8346 119.008 47.984C115.42 47.3368 111.741 47.2074 108.116 47.5957C100.868 48.3723 93.8968 51.2385 88.22 55.8242C86.8147 56.9522 85.4834 58.1911 84.2445 59.5224C81.7482 62.1851 79.5662 65.1807 77.8096 68.3796C76.0345 71.6341 74.6846 75.1289 73.8895 78.7531C72.9834 82.9506 72.7061 87.296 71.1343 91.327C68.9894 96.8188 63.7934 99.574 59.2076 102.773C56.8408 104.437 54.6218 106.638 53.6418 109.411C52.5139 112.647 53.4384 115.994 55.3615 118.675C61.0752 126.645 69.5071 131.6 78.087 135.262C87.6653 139.348 97.9093 141.789 108.246 142.843C110.742 143.102 113.238 143.268 115.735 143.361C117.251 143.416 118.767 143.435 120.283 143.435C127.569 143.398 135.871 143.028 142.621 140.125C144.174 139.459 145.579 138.461 146.633 137.129C152.181 130.14 144.081 121.634 141.382 115.384L141.308 115.365Z" fill="#3FA7C3"/>
<path d="M103.441 149.87C105.364 150.332 106.381 152.477 105.475 154.252C102.109 160.816 94.5834 164.459 87.113 162.628C79.6426 160.798 74.6501 154.086 74.7055 146.708C74.7055 144.729 76.6101 143.287 78.5332 143.768L103.441 149.87Z" fill="#3FA7C3"/>
<path d="M45.7078 22.4666C44.5798 20.4881 43.4334 18.4356 42.8047 17.2522L42.7492 17.2891C43.3224 19.3971 44.247 24.778 45.0051 28.8645L43.5813 29.6781C41.0665 27.3852 36.5177 23.3542 34.946 21.727L34.8905 21.764C35.6856 22.9659 37.091 25.3142 38.1449 27.1633L40.5673 31.3978L39.0695 32.2484L32.875 21.4311L35.2603 20.0628C38.2744 22.6515 42.065 26.0354 43.2485 27.2558H43.267C42.8786 25.9799 41.9356 20.4511 41.3069 16.5865L43.6368 15.2551L49.8313 26.0724L48.2595 26.9599L45.6893 22.4481L45.7078 22.4666Z" fill="#3FA7C3"/>
<path d="M59.3331 15.8102L53.6563 18.1586L55.2465 22.0047L61.4965 19.4159L61.8848 20.9507L54.1926 24.1312L49.4219 12.6297L57.0402 9.46777L57.6319 10.9101L51.6778 13.3694L53.0461 16.6793L58.7229 14.3309L59.3146 15.7732L59.3331 15.8102Z" fill="#3FA7C3"/>
<path d="M62.0332 7.7292L66.3786 6.43483C69.7625 5.43632 72.7025 7.04504 73.7565 10.6138C74.792 14.1271 73.3497 17.363 69.8549 18.3985L65.565 19.6744L62.0332 7.7477V7.7292ZM66.8963 17.6404L69.3002 16.9377C72.0184 16.1426 72.7025 13.8128 71.9259 11.187C71.2602 8.91263 69.4666 7.13749 66.656 7.96959L64.2521 8.67225L66.8963 17.6404Z" fill="#3FA7C3"/>
<path d="M78.8063 3.27295L81.4135 15.4585L79.6014 15.8468L76.9941 3.66126L78.8063 3.27295Z" fill="#3FA7C3"/>
<path d="M95.5411 9.57815C95.3007 11.7786 93.9138 13.5907 91.0662 13.979C87.331 14.4968 85.0936 11.9635 84.5944 8.46869C84.1321 5.10332 85.5929 1.81192 89.3835 1.29417C92.3606 0.887365 94.1912 2.36665 94.8199 4.38217L92.9893 4.64104C92.3976 3.42064 91.4176 2.53307 89.513 2.81043C86.8873 3.18025 86.1476 5.69503 86.4989 8.15434C86.8318 10.5212 88.1631 12.8696 90.9183 12.4812C92.7859 12.2224 93.4146 11.002 93.692 9.83702L95.5411 9.57815Z" fill="#3FA7C3"/>
<path d="M101.457 9.17175L100.366 12.796L98.5352 12.8884L102.344 0.240585L104.637 0.129639L109.815 12.3522L107.855 12.4447L106.375 8.93137L101.494 9.15326L101.457 9.17175ZM105.821 7.4151C104.545 4.3271 103.824 2.62593 103.509 1.66439C103.25 2.77386 102.64 4.88183 101.864 7.61851L105.839 7.4336L105.821 7.4151Z" fill="#3FA7C3"/>
<path d="M113.717 0L115.566 0.0739641L115.178 10.9467L121.613 11.1871L121.317 12.7403L113.273 12.4445L113.717 0Z" fill="#3FA7C3"/>
<path d="M139.755 11.446C138.886 13.4985 137.055 14.8299 134.208 14.3861C130.491 13.8129 129.049 10.7434 129.585 7.26705C130.103 3.92018 132.432 1.18351 136.205 1.75673C139.182 2.219 140.495 4.16056 140.532 6.26854L138.701 5.99117C138.479 4.65982 137.795 3.53187 135.909 3.2545C133.302 2.8477 131.878 5.06662 131.489 7.50744C131.138 9.8558 131.748 12.4815 134.503 12.9068C136.371 13.1842 137.314 12.2042 137.906 11.1687L139.736 11.446H139.755Z" fill="#3FA7C3"/>
<path d="M146.115 3.73535L147.909 4.19763L146.633 9.17171L152.643 10.725L153.937 5.75087L155.731 6.21315L152.624 18.2693L150.831 17.807L152.273 12.2412L146.263 10.688L144.821 16.2538L143.027 15.7915L146.152 3.73535H146.115Z" fill="#3FA7C3"/>
<path d="M160.073 17.0303L157.632 19.9334L155.912 19.2862L164.418 9.17163L166.563 9.98524L166.47 23.2618L164.64 22.5776L164.677 18.7685L160.091 17.0488L160.073 17.0303ZM164.769 17.1228C164.825 13.7759 164.843 11.9268 164.917 10.9098C164.252 11.8158 162.846 13.517 161.053 15.7175L164.788 17.1228H164.769Z" fill="#3FA7C3"/>
<path d="M173.576 20.6915L171.135 25.4992L169.508 24.6671L175.148 13.554L179.585 15.8099C181.897 16.9748 182.489 18.8609 181.619 20.599C180.88 22.0598 179.622 22.4851 178.457 22.2817C179.179 22.9474 179.641 24.0014 178.661 25.9429L178.42 26.4422C178.032 27.2003 177.533 28.1434 177.459 28.6981L175.869 27.8845C175.906 27.3113 176.349 26.4422 176.904 25.3697L177.015 25.1478C177.792 23.6316 177.699 22.7625 175.739 21.764L173.594 20.673L173.576 20.6915ZM174.26 19.3232L176.608 20.5066C178.236 21.3387 179.253 21.0798 179.844 19.8964C180.418 18.7684 180.011 17.7514 178.568 17.0303L176.091 15.7729L174.279 19.3416L174.26 19.3232Z" fill="#3FA7C3"/>
<path d="M189.253 23.2802L185.943 21.0798L186.812 19.7854L194.985 25.2218L194.116 26.5161L190.806 24.3157L184.778 33.3763L183.225 32.3408L189.253 23.2802Z" fill="#3FA7C3"/>
<path d="M26.4607 168.675V210.742H19.1937V209.319C13.6279 212.129 6.86017 210.668 2.94007 205.824C-0.980025 200.979 -0.980025 194.045 2.94007 189.2C6.86017 184.356 13.6279 182.895 19.1937 185.706V168.694H26.4607V168.675ZM19.1937 197.503C19.1937 194.211 16.531 191.549 13.2396 191.549C9.94817 191.549 7.28547 194.211 7.28547 197.503C7.28547 200.794 9.94817 203.457 13.2396 203.457C16.531 203.457 19.1937 200.794 19.1937 197.503Z" fill="#3FA7C3"/>
<path d="M31.2695 176.479V168.805H38.5365V176.479H31.2695ZM31.2695 210.743V184.319H38.5365V210.743H31.2695Z" fill="#3FA7C3"/>
<path d="M66.6056 195.894V210.742H59.3386V195.894C59.3386 193.49 57.3971 191.549 54.9932 191.549C52.5894 191.549 50.6478 193.49 50.6478 195.894V210.742H43.3809V184.263H50.6478V185.114C52.0347 184.559 53.5139 184.263 54.9932 184.263C61.4096 184.263 66.6056 189.478 66.6241 195.894H66.6056Z" fill="#3FA7C3"/>
<path d="M100.76 184.281V191.548H97.2837V197.502C97.2837 201.016 95.8968 204.381 93.4005 206.859C90.9042 209.337 87.5574 210.742 84.0441 210.724H79.2364C78.6077 210.724 78.09 211.241 78.09 211.87C78.09 212.499 78.6077 213.016 79.2364 213.016H88.8702C93.5115 213.016 97.2837 216.789 97.2837 221.43C97.2837 226.071 93.5115 229.843 88.8702 229.843H80.4198V222.576H88.8702C89.4989 222.576 90.0167 222.059 90.0167 221.43C90.0167 220.801 89.4989 220.283 88.8702 220.283H79.2364C75.7601 220.283 72.6166 218.138 71.3777 214.884C70.1388 211.63 71.0264 207.95 73.6151 205.62C69.5841 200.443 69.9539 193.083 74.5027 188.331C79.0515 183.597 86.3924 182.913 91.7363 186.722C91.8473 186.593 91.9767 186.463 92.0877 186.334C93.419 185.003 95.2311 184.244 97.1172 184.244H100.76V184.281ZM78.09 197.502C78.09 199.906 79.5508 202.088 81.7697 203.013C83.9886 203.937 86.5589 203.42 88.26 201.718C89.9612 200.017 90.479 197.447 89.5544 195.228C88.6299 193.009 86.4664 191.548 84.0441 191.548C80.7527 191.548 78.09 194.211 78.09 197.502Z" fill="#3FA7C3"/>
<path d="M130.232 168.675V210.742H122.965V209.319C117.399 212.129 110.632 210.668 106.712 205.824C102.791 200.979 102.791 194.045 106.712 189.2C110.632 184.356 117.399 182.895 122.965 185.706V168.694H130.232V168.675ZM122.965 197.503C122.965 194.211 120.302 191.549 117.011 191.549C113.72 191.549 111.057 194.211 111.057 197.503C111.057 200.794 113.72 203.457 117.011 203.457C120.302 203.457 122.965 200.794 122.965 197.503Z" fill="#3FA7C3"/>
<path d="M160.892 197.484C160.892 202.828 157.674 207.654 152.719 209.707C147.763 211.759 142.086 210.631 138.296 206.84C134.505 203.05 133.377 197.373 135.43 192.417C137.482 187.462 142.308 184.244 147.652 184.244C154.956 184.244 160.873 190.18 160.892 197.484ZM153.625 197.484C153.625 195.08 152.164 192.898 149.945 191.974C147.726 191.049 145.156 191.567 143.455 193.268C141.753 194.969 141.236 197.539 142.16 199.758C143.085 201.977 145.248 203.438 147.671 203.438C150.962 203.438 153.625 200.775 153.625 197.484Z" fill="#3FA7C3"/>
<path d="M188.352 195.894V210.742H181.085V195.894C181.085 193.49 179.143 191.549 176.739 191.549C174.335 191.549 172.394 193.49 172.394 195.894V210.742H165.127V184.263H172.394V185.114C173.781 184.559 175.26 184.263 176.739 184.263C183.156 184.263 188.352 189.478 188.37 195.894H188.352Z" fill="#3FA7C3"/>
<path d="M222.502 184.281V191.548H219.026V197.502C219.026 201.016 217.639 204.381 215.143 206.859C212.646 209.337 209.3 210.742 205.786 210.724H200.979C200.35 210.724 199.832 211.241 199.832 211.87C199.832 212.499 200.35 213.016 200.979 213.016H210.612C215.254 213.016 219.026 216.789 219.026 221.43C219.026 226.071 215.254 229.843 210.612 229.843H202.162V222.576H210.612C211.241 222.576 211.759 222.059 211.759 221.43C211.759 220.801 211.241 220.283 210.612 220.283H200.979C197.502 220.283 194.359 218.138 193.12 214.884C191.881 211.63 192.769 207.95 195.357 205.62C191.326 200.443 191.696 193.083 196.245 188.331C200.794 183.597 208.135 182.913 213.479 186.722C213.589 186.593 213.719 186.463 213.83 186.334C215.161 185.003 216.973 184.244 218.859 184.244H222.502V184.281ZM199.832 197.502C199.832 199.906 201.293 202.088 203.512 203.013C205.731 203.937 208.301 203.42 210.002 201.718C211.703 200.017 212.221 197.447 211.297 195.228C210.372 193.009 208.209 191.548 205.786 191.548C202.495 191.548 199.832 194.211 199.832 197.502Z" fill="#3FA7C3"/>
</svg>
