<svg width="520" height="531" viewBox="0 0 520 531" fill="none" xmlns="http://www.w3.org/2000/svg">
<path d="M436.191 392.678C434.178 388.122 432.439 383.475 430.975 378.737C421.277 346.662 436.282 320.42 446.895 290.987C455.313 267.569 463.273 235.768 436.923 220.733C419.722 210.892 403.802 221.462 397.672 238.593C379.648 288.345 363.088 327.254 316.884 356.959C296.298 370.172 269.582 379.466 244.97 374.09C225.757 369.898 208.373 355.319 201.968 337.095C196.479 321.422 198.034 300.282 211.758 289.074C222.097 280.6 235.821 281.602 248.355 280.144C258.603 278.96 269.307 276.317 277.267 269.392C278.457 268.39 279.554 267.205 280.652 266.02C294.742 249.71 290.168 225.016 285.501 206.063C282.299 193.124 277.45 180.64 272.692 168.157C268.667 157.404 266.196 144.101 270.588 133.075C274.431 123.416 282.757 115.853 293.004 113.484C316.701 107.835 336.921 129.157 352.932 143.281C374.25 162.051 400.966 171.437 428.322 159.044C441.04 153.304 452.568 144.556 463.181 135.626C487.701 114.942 520.273 87.6057 519.998 52.433C519.724 26.4635 496.942 3.40995 471.049 0.311839C459.247 -1.05497 445.797 1.95201 439.027 11.702C430.152 24.4589 435.093 42.4097 433.903 56.8979C432.073 78.4936 413.683 86.33 393.372 81.9562C370.224 77.0356 349.364 64.8254 325.85 60.6339C308.1 57.4447 289.893 56.8068 271.961 58.7203C236.095 62.5474 201.602 76.6712 173.514 99.2691C166.56 104.828 159.973 110.933 153.843 117.493C141.491 130.615 130.695 145.376 122.003 161.14C113.22 177.177 106.541 194.399 102.607 212.259C98.1236 232.943 96.7513 254.357 88.9744 274.221C78.3612 301.284 52.6516 314.861 29.9613 330.625C18.2502 338.826 7.27102 349.669 2.42189 363.337C-3.15919 379.284 1.41547 395.777 10.9308 408.989C39.2021 448.262 80.923 472.683 123.376 490.725C170.769 510.862 221.456 522.89 272.601 528.084C284.953 529.36 297.304 530.18 309.656 530.635C317.158 530.909 324.661 531 332.163 531C368.211 530.818 409.292 528.995 442.687 514.689C450.372 511.409 457.326 506.488 462.541 499.928C489.989 465.484 449.915 423.568 436.557 392.77L436.191 392.678Z" fill="#3FA7C3" fill-opacity="0.1"/>
</svg>
