<svg width="14" height="13" viewBox="0 0 14 13" fill="none" xmlns="http://www.w3.org/2000/svg">
<mask id="path-1-inside-1_377_1896" fill="white">
<path fill-rule="evenodd" clip-rule="evenodd" d="M8.32405 0.98033C7.5725 0.329474 6.45698 0.329473 5.70543 0.980329L1.42322 4.68884C0.424291 5.55393 0.574818 6.97275 1.41591 7.71444V10.5168C1.41591 11.6214 2.31134 12.5168 3.41591 12.5168H10.5549C11.6595 12.5168 12.5549 11.6214 12.5549 10.5168V7.76414C13.4472 7.03778 13.628 5.57367 12.6063 4.68884L8.32405 0.98033Z"/>
</mask>
<path d="M5.70543 0.980329L5.18171 0.375586V0.375586L5.70543 0.980329ZM8.32405 0.98033L8.84777 0.375587L8.32405 0.98033ZM1.42322 4.68884L1.94694 5.29358L1.42322 4.68884ZM1.41591 7.71444H2.21591V7.35328L1.94503 7.11441L1.41591 7.71444ZM12.5549 7.76414L12.0499 7.14372L11.7549 7.38382V7.76414H12.5549ZM12.6063 4.68884L13.13 4.0841L12.6063 4.68884ZM6.22916 1.58507C6.68008 1.19456 7.3494 1.19456 7.80032 1.58507L8.84777 0.375587C7.79561 -0.535611 6.23387 -0.535613 5.18171 0.375586L6.22916 1.58507ZM1.94694 5.29358L6.22916 1.58507L5.18171 0.375586L0.899495 4.08409L1.94694 5.29358ZM1.94503 7.11441C1.42196 6.65315 1.35843 5.80324 1.94694 5.29358L0.899495 4.08409C-0.509851 5.30462 -0.272319 7.29234 0.886795 8.31447L1.94503 7.11441ZM2.21591 10.5168V7.71444H0.615913V10.5168H2.21591ZM3.41591 11.7168C2.75317 11.7168 2.21591 11.1795 2.21591 10.5168H0.615913C0.615913 12.0632 1.86952 13.3168 3.41591 13.3168V11.7168ZM10.5549 11.7168H3.41591V13.3168H10.5549V11.7168ZM11.7549 10.5168C11.7549 11.1795 11.2177 11.7168 10.5549 11.7168V13.3168C12.1013 13.3168 13.3549 12.0632 13.3549 10.5168H11.7549ZM11.7549 7.76414V10.5168H13.3549V7.76414H11.7549ZM12.0825 5.29358C12.6842 5.8146 12.6034 6.69312 12.0499 7.14372L13.06 8.38456C14.291 7.38243 14.5718 5.33274 13.13 4.0841L12.0825 5.29358ZM7.80032 1.58507L12.0825 5.29358L13.13 4.0841L8.84777 0.375587L7.80032 1.58507Z" fill="#404855" mask="url(#path-1-inside-1_377_1896)"/>
</svg>
