<svg width="12" height="12" viewBox="0 0 12 12" fill="none" xmlns="http://www.w3.org/2000/svg">
<path id="Union" d="M6.98499 0.513689C6.98499 0.238279 6.76113 0.0150146 6.48499 0.0150146C6.20884 0.0150146 5.98499 0.238279 5.98499 0.513689V5.01734H1.48499C1.20884 5.01734 0.984985 5.24061 0.984985 5.51602C0.984985 5.79143 1.20884 6.01469 1.48499 6.01469H5.98499V10.5163C5.98499 10.7917 6.20884 11.015 6.48499 11.015C6.76113 11.015 6.98499 10.7917 6.98499 10.5163V6.01469H11.485C11.7611 6.01469 11.985 5.79143 11.985 5.51602C11.985 5.24061 11.7611 5.01734 11.485 5.01734H6.98499V0.513689Z" fill="#404855"/>
</svg>
