<svg width="12" height="8" viewBox="0 0 12 8" fill="none" xmlns="http://www.w3.org/2000/svg">
<path fill-rule="evenodd" clip-rule="evenodd" d="M0.5 1C0.5 0.723858 0.723858 0.5 1 0.5H11C11.2761 0.5 11.5 0.723858 11.5 1C11.5 1.27614 11.2761 1.5 11 1.5H1C0.723858 1.5 0.5 1.27614 0.5 1ZM0.5 4C0.5 3.72386 0.723858 3.5 1 3.5H11C11.2761 3.5 11.5 3.72386 11.5 4C11.5 4.27614 11.2761 4.5 11 4.5H1C0.723858 4.5 0.5 4.27614 0.5 4ZM1 6.5C0.723858 6.5 0.5 6.72386 0.5 7C0.5 7.27614 0.723858 7.5 1 7.5H11C11.2761 7.5 11.5 7.27614 11.5 7C11.5 6.72386 11.2761 6.5 11 6.5H1Z" fill="#3FA7C3"/>
</svg>
