<svg width="16" height="16" viewBox="0 0 16 16" fill="none" xmlns="http://www.w3.org/2000/svg">
<path d="M12.0243 4.4227C12.2586 4.18839 12.2586 3.80849 12.0243 3.57417C11.7899 3.33986 11.4101 3.33986 11.1757 3.57417L7.6 7.14991L4.02426 3.57417C3.78995 3.33986 3.41005 3.33986 3.17574 3.57417C2.94142 3.80849 2.94142 4.18839 3.17574 4.4227L6.75147 7.99844L3.17574 11.5742C2.94142 11.8085 2.94142 12.1884 3.17574 12.4227C3.41005 12.657 3.78995 12.657 4.02426 12.4227L7.6 8.84697L11.1757 12.4227C11.4101 12.657 11.79 12.657 12.0243 12.4227C12.2586 12.1884 12.2586 11.8085 12.0243 11.5742L8.44853 7.99844L12.0243 4.4227Z" fill="#3FA7C3"/>
</svg>
