<svg width="12" height="12" viewBox="0 0 12 12" fill="none" xmlns="http://www.w3.org/2000/svg">
<g id="Property 1=Default">
<g id="Union">
<path fill-rule="evenodd" clip-rule="evenodd" d="M1.46997 0.0150146C1.19383 0.0150146 0.969971 0.238318 0.969971 0.513776V4.51553C0.969971 4.79099 1.19383 5.01429 1.46997 5.01429H5.46997C5.74611 5.01429 5.96997 4.79099 5.96997 4.51553V0.513776C5.96997 0.238318 5.74611 0.0150146 5.46997 0.0150146H1.46997ZM1.96997 4.01677V1.01254H4.96997V4.01677H1.96997Z" fill="#404855"/>
<path fill-rule="evenodd" clip-rule="evenodd" d="M7.46997 0.0150146C7.19383 0.0150146 6.96997 0.238318 6.96997 0.513776V4.51553C6.96997 4.79099 7.19383 5.01429 7.46997 5.01429H11.47C11.7461 5.01429 11.97 4.79099 11.97 4.51553V0.513776C11.97 0.238318 11.7461 0.0150146 11.47 0.0150146H7.46997ZM7.96997 4.01677V1.01254H10.97V4.01677H7.96997Z" fill="#404855"/>
<path fill-rule="evenodd" clip-rule="evenodd" d="M6.96997 6.5145C6.96997 6.23904 7.19383 6.01574 7.46997 6.01574H11.47C11.7461 6.01574 11.97 6.23904 11.97 6.5145V10.5163C11.97 10.7917 11.7461 11.015 11.47 11.015H7.46997C7.19383 11.015 6.96997 10.7917 6.96997 10.5163V6.5145ZM7.96997 7.01326V10.0175H10.97V7.01326H7.96997Z" fill="#404855"/>
<path fill-rule="evenodd" clip-rule="evenodd" d="M1.46997 6.01574C1.19383 6.01574 0.969971 6.23904 0.969971 6.5145V10.5163C0.969971 10.7917 1.19383 11.015 1.46997 11.015H5.46997C5.74611 11.015 5.96997 10.7917 5.96997 10.5163V6.5145C5.96997 6.23904 5.74611 6.01574 5.46997 6.01574H1.46997ZM1.96997 10.0175V7.01326H4.96997V10.0175H1.96997Z" fill="#404855"/>
</g>
</g>
</svg>
