<svg width="17" height="15" viewBox="0 0 14 15" fill="none" xmlns="http://www.w3.org/2000/svg">
<path d="M9.25 2H10.625C10.9897 2 11.3394 2.14048 11.5973 2.39052C11.8551 2.64057 12 2.97971 12 3.33333V12.6667C12 13.0203 11.8551 13.3594 11.5973 13.6095C11.3394 13.8595 10.9897 14 10.625 14H2.375C2.01033 14 1.66059 13.8595 1.40273 13.6095C1.14487 13.3594 1 13.0203 1 12.6667V3.33333C1 2.97971 1.14487 2.64057 1.40273 2.39052C1.66059 2.14048 2.01033 2 2.375 2H3.75" stroke="#404855" stroke-width="0.8" stroke-linecap="round" stroke-linejoin="round"/>
<path d="M8.375 1H4.625C4.27982 1 4 1.33579 4 1.75V3.25C4 3.66421 4.27982 4 4.625 4H8.375C8.72018 4 9 3.66421 9 3.25V1.75C9 1.33579 8.72018 1 8.375 1Z" stroke="#404855" stroke-width="0.8" stroke-linecap="round" stroke-linejoin="round"/>
<path d="M13.2954 5.25068C13.3881 5.1712 13.4982 5.10816 13.6194 5.06515C13.7405 5.02214 13.8704 5 14.0015 5C14.1326 5 14.2625 5.02214 14.3836 5.06515C14.5047 5.10816 14.6148 5.1712 14.7075 5.25068C14.8003 5.33015 14.8738 5.4245 14.924 5.52834C14.9742 5.63218 15 5.74348 15 5.85587C15 5.96826 14.9742 6.07956 14.924 6.1834C14.8738 6.28724 14.8003 6.38159 14.7075 6.46106L9.94166 10.5461L8 11L8.52954 9.33572L13.2954 5.25068Z" fill="#E5F9EF" stroke="#404855" stroke-width="0.8" stroke-linecap="round" stroke-linejoin="round"/>
</svg>
