<svg width="14" height="15" viewBox="0 0 14 15" fill="none" xmlns="http://www.w3.org/2000/svg">
<path d="M12.498 3.53798C11.8934 3.44908 11.36 3.92917 11.392 4.54084C11.4133 4.99248 11.7618 5.37655 12.2099 5.44057C12.8145 5.52947 13.3479 5.04938 13.3159 4.43771C13.2946 3.98607 12.9461 3.60199 12.498 3.53798Z" fill="#67AC9A"/>
<path d="M10.1855 9.20012C10.1393 9.09343 10.0966 8.98319 10.0646 8.87294C9.83699 8.12258 10.1891 7.50735 10.4344 6.81744C10.63 6.26978 10.8185 5.52653 10.2033 5.17091C9.80143 4.93975 9.43158 5.18869 9.28577 5.58699C8.86614 6.75343 8.47851 7.66383 7.40097 8.36085C6.92088 8.67024 6.29854 8.88717 5.72243 8.7627C5.27434 8.66668 4.86894 8.32173 4.71957 7.89498C4.59155 7.52869 4.62711 7.03437 4.94717 6.76766C5.189 6.56851 5.50906 6.5934 5.80067 6.55784C6.03893 6.52939 6.28787 6.46893 6.47635 6.30535C6.5048 6.28045 6.5297 6.25556 6.55459 6.22711C6.88176 5.84659 6.77863 5.26693 6.66839 4.8224C6.59371 4.52012 6.47991 4.22851 6.36967 3.9369C6.27365 3.6844 6.21675 3.37501 6.31988 3.11541C6.40878 2.88781 6.60438 2.71355 6.84264 2.65665C7.39386 2.52507 7.86684 3.02294 8.24024 3.35367C8.73811 3.79465 9.36045 4.01158 9.99702 3.72352C10.2922 3.58839 10.5625 3.38212 10.8114 3.17586C11.3839 2.69221 12.145 2.05209 12.1343 1.22705C12.1272 0.618933 11.5973 0.0783861 10.9928 0.0072615C10.7154 -0.0247446 10.4024 0.04638 10.246 0.273979C10.0397 0.572702 10.1535 0.992338 10.125 1.33374C10.0824 1.83872 9.65206 2.02364 9.17909 1.92051C8.63854 1.80316 8.15134 1.51866 7.60368 1.42264C7.1876 1.34796 6.7644 1.33374 6.34477 1.37641C5.50906 1.46532 4.70535 1.79604 4.04745 2.32592C3.88386 2.4575 3.73094 2.59975 3.58869 2.75267C3.30064 3.06206 3.04814 3.40346 2.84544 3.77687C2.63918 4.15383 2.4827 4.55568 2.3938 4.97532C2.29067 5.45896 2.25866 5.96039 2.07729 6.42626C1.82836 7.05927 1.23091 7.37933 0.701033 7.74562C0.427203 7.93765 0.171155 8.19015 0.057356 8.51376C-0.0742245 8.88717 0.0324615 9.2748 0.256504 9.58419C0.914407 10.5053 1.88882 11.0743 2.881 11.4974C3.98699 11.9704 5.16766 12.2514 6.36255 12.3723C6.65061 12.4007 6.93866 12.4221 7.22672 12.4327C7.40097 12.4398 7.57523 12.4434 7.74949 12.4398C8.58876 12.4398 9.54894 12.3936 10.3278 12.0593C10.5056 11.9811 10.6691 11.8673 10.7901 11.7144C11.4302 10.9071 10.4949 9.92559 10.1819 9.20367L10.1855 9.20012Z" fill="#67AC9A"/>
<path d="M5.81901 13.1825C6.03949 13.2359 6.15685 13.4848 6.05372 13.6875C5.66609 14.445 4.79837 14.8646 3.9342 14.6548C3.07004 14.445 2.49393 13.6697 2.50104 12.8162C2.50104 12.5886 2.72153 12.4215 2.94202 12.4748L5.81901 13.179V13.1825Z" fill="#67AC9A"/>
</svg>
