<svg width="21" height="22" viewBox="0 0 21 22" fill="none" xmlns="http://www.w3.org/2000/svg">
<circle cx="10.5" cy="11" r="10" stroke="#404855"/>
<mask id="path-2-inside-1_563_1406" fill="white">
<path fill-rule="evenodd" clip-rule="evenodd" d="M7.6543 6.96094C6.54973 6.96094 5.6543 7.85637 5.6543 8.96094V12.891C5.6543 13.9956 6.54973 14.891 7.65429 14.891H12.1134L15.3458 16.6542V13.1297H15.3325C15.3418 13.0514 15.3466 12.9718 15.3466 12.891V8.96094C15.3466 7.85637 14.4512 6.96094 13.3466 6.96094H7.6543Z"/>
</mask>
<path d="M12.1134 14.891L12.5922 14.0131L12.3684 13.891H12.1134V14.891ZM15.3458 16.6542L14.867 17.5321L16.3458 18.3387V16.6542H15.3458ZM15.3458 13.1297H16.3458V12.1297H15.3458V13.1297ZM15.3325 13.1297L14.3395 13.0116L14.2065 14.1297H15.3325V13.1297ZM6.6543 8.96094C6.6543 8.40865 7.10201 7.96094 7.6543 7.96094V5.96094C5.99744 5.96094 4.6543 7.30408 4.6543 8.96094H6.6543ZM6.6543 12.891V8.96094H4.6543V12.891H6.6543ZM7.65429 13.891C7.10201 13.891 6.6543 13.4433 6.6543 12.891H4.6543C4.6543 14.5479 5.99744 15.891 7.65429 15.891V13.891ZM12.1134 13.891H7.65429V15.891H12.1134V13.891ZM11.6345 15.7689L14.867 17.5321L15.8247 15.7763L12.5922 14.0131L11.6345 15.7689ZM16.3458 16.6542V13.1297H14.3458V16.6542H16.3458ZM15.3458 12.1297H15.3325V14.1297H15.3458V12.1297ZM14.3466 12.891C14.3466 12.9322 14.3442 12.9724 14.3395 13.0116L16.3255 13.2478C16.3395 13.1304 16.3466 13.0113 16.3466 12.891H14.3466ZM14.3466 8.96094V12.891H16.3466V8.96094H14.3466ZM13.3466 7.96094C13.8989 7.96094 14.3466 8.40865 14.3466 8.96094H16.3466C16.3466 7.30408 15.0035 5.96094 13.3466 5.96094V7.96094ZM7.6543 7.96094H13.3466V5.96094H7.6543V7.96094Z" fill="#404855" mask="url(#path-2-inside-1_563_1406)"/>
<path d="M8.07617 11H12.9223" stroke="#404855"/>
</svg>
