<svg width="14" height="17" viewBox="0 0 14 17" fill="none" xmlns="http://www.w3.org/2000/svg">
<path d="M11.6667 1H2.33333C1.59695 1 1 1.74619 1 2.66667V14.3333C1 15.2538 1.59695 16 2.33333 16H11.6667C12.403 16 13 15.2538 13 14.3333V2.66667C13 1.74619 12.403 1 11.6667 1Z" stroke="#404855" stroke-width="0.8" stroke-linecap="round" stroke-linejoin="round"/>
<path d="M9.33333 3H4.66667C4.29848 3 4 3.14924 4 3.33333V5.66667C4 5.85076 4.29848 6 4.66667 6H9.33333C9.70152 6 10 5.85076 10 5.66667V3.33333C10 3.14924 9.70152 3 9.33333 3Z" stroke="#404855" stroke-width="0.8" stroke-linecap="round" stroke-linejoin="round"/>
<path d="M1 8H13" stroke="#404855" stroke-width="0.8" stroke-linecap="round" stroke-linejoin="round"/>
</svg>
