<svg width="11" height="13" viewBox="0 0 11 13" fill="none" xmlns="http://www.w3.org/2000/svg">
<path d="M6.625 1H2.125C1.82663 1 1.54048 1.11853 1.3295 1.3295C1.11853 1.54048 1 1.82663 1 2.125V11.125C1 11.4234 1.11853 11.7095 1.3295 11.9205C1.54048 12.1315 1.82663 12.25 2.125 12.25H8.875C9.17337 12.25 9.45952 12.1315 9.67049 11.9205C9.88147 11.7095 10 11.4234 10 11.125V4.375L6.625 1Z" stroke="#404855" stroke-width="0.9" stroke-linecap="round" stroke-linejoin="round"/>
<path d="M6.625 1V4.375H10" stroke="#404855" stroke-width="0.9" stroke-linecap="round" stroke-linejoin="round"/>
<path d="M7.75 7.1875H3.25" stroke="#404855" stroke-width="0.9" stroke-linecap="round" stroke-linejoin="round"/>
<path d="M7.75 9.4375H3.25" stroke="#404855" stroke-width="0.9" stroke-linecap="round" stroke-linejoin="round"/>
<path d="M4.375 4.9375H3.8125H3.25" stroke="#404855" stroke-width="0.9" stroke-linecap="round" stroke-linejoin="round"/>
</svg>
