<svg width="10" height="10" viewBox="0 0 10 10" fill="none" xmlns="http://www.w3.org/2000/svg">
<path d="M9.22891 0.828021C8.98456 0.575034 8.69445 0.374347 8.37514 0.237425C8.05583 0.100503 7.71358 0.0300293 7.36794 0.0300293C7.0223 0.0300293 6.68005 0.100503 6.36074 0.237425C6.04143 0.374347 5.75132 0.575034 5.50697 0.828021L4.99987 1.35281L4.49277 0.828021C3.99921 0.317245 3.3298 0.030294 2.6318 0.0302941C1.93381 0.0302941 1.2644 0.317245 0.770838 0.828021C0.277279 1.3388 5.20049e-09 2.03156 0 2.7539C-5.20049e-09 3.47625 0.277279 4.16901 0.770838 4.67979L1.27794 5.20458L4.99987 9.05634L8.72181 5.20458L9.22891 4.67979C9.47337 4.42692 9.66729 4.12669 9.79959 3.79624C9.9319 3.46579 10 3.1116 10 2.7539C10 2.39621 9.9319 2.04202 9.79959 1.71157C9.66729 1.38112 9.47337 1.08089 9.22891 0.828021Z" fill="#3FA7C3"/>
</svg>
